<svg width="41" height="40" viewBox="0 0 41 40" fill="none" xmlns="http://www.w3.org/2000/svg">
<g clip-path="url(#clip0_392_752)">
<path d="M20.6667 0C9.62389 0 0.666687 8.9572 0.666687 20C0.666687 31.0428 9.62389 40 20.6667 40C31.7095 40 40.6667 31.0428 40.6667 20C40.6667 8.9572 31.7095 0 20.6667 0ZM28.5389 10.1025H26.2001C23.8976 10.1025 23.1742 11.5371 23.1742 13.0078V16.4919H28.3219L27.5021 21.8565H23.1742V34.8403H17.3635V21.8565H12.6498V16.4919H17.3635V12.4051C17.3635 7.75166 20.1362 5.18385 24.3798 5.18385C26.4171 5.18385 28.5389 5.54551 28.5389 5.54551V10.1145V10.1025Z" fill="#1877F2"/>
</g>
<defs>
<clipPath id="clip0_392_752">
<rect width="40" height="40" fill="white" transform="translate(0.666687)"/>
</clipPath>
</defs>
</svg>
