<svg width="40" height="40" viewBox="0 0 40 40" fill="none" xmlns="http://www.w3.org/2000/svg">
<g clip-path="url(#clip0_392_722)">
<path d="M20 0C8.9572 0 0 8.9572 0 20C0 31.0428 8.9572 40 20 40C31.0428 40 40 31.0428 40 20C40 8.9572 31.0428 0 20 0ZM32.1157 24.8342C32.1157 28.8487 28.8487 32.1157 24.8342 32.1157H15.1537C11.1392 32.1157 7.87221 28.8487 7.87221 24.8342V15.1537C7.87221 11.1392 11.1392 7.87221 15.1537 7.87221H24.8342C28.8487 7.87221 32.1157 11.1392 32.1157 15.1537V24.8342ZM23.918 20C23.918 22.1097 22.2061 23.8216 20.0964 23.8216C17.9867 23.8216 16.2749 22.1097 16.2749 20C16.2749 17.8903 17.9867 16.1784 20.0964 16.1784C22.2061 16.1784 23.918 17.8903 23.918 20ZM24.8342 10.1627H15.1537C12.393 10.1627 10.1507 12.4051 10.1507 15.1658V24.8463C10.1507 27.607 12.393 29.8493 15.1537 29.8493H24.8342C27.5949 29.8493 29.8373 27.607 29.8373 24.8463V15.1658C29.8373 12.4051 27.5949 10.1627 24.8342 10.1627ZM20.0964 25.9675C16.8053 25.9675 14.129 23.2911 14.129 20C14.129 16.7089 16.8053 14.0326 20.0964 14.0326C23.3876 14.0326 26.0639 16.7089 26.0639 20C26.0639 23.2911 23.3876 25.9675 20.0964 25.9675ZM26.4135 15.0452C25.6299 15.0452 24.991 14.4063 24.991 13.6227C24.991 12.8391 25.6299 12.2001 26.4135 12.2001C27.1971 12.2001 27.836 12.8391 27.836 13.6227C27.836 14.4063 27.1971 15.0452 26.4135 15.0452Z" fill="url(#paint0_linear_392_722)"/>
</g>
<defs>
<linearGradient id="paint0_linear_392_722" x1="5.85895" y1="5.85895" x2="34.141" y2="34.141" gradientUnits="userSpaceOnUse">
<stop stop-color="#434EED"/>
<stop offset="0.26" stop-color="#A436D2"/>
<stop offset="0.48" stop-color="#F63395"/>
<stop offset="0.62" stop-color="#FF5176"/>
<stop offset="0.79" stop-color="#FFBB36"/>
<stop offset="1" stop-color="#FFE185"/>
</linearGradient>
<clipPath id="clip0_392_722">
<rect width="40" height="40" fill="white"/>
</clipPath>
</defs>
</svg>
