<svg width="40" height="40" viewBox="0 0 40 40" fill="none" xmlns="http://www.w3.org/2000/svg">
<g clip-path="url(#clip0_392_242)">
<path d="M27.6114 38.4982C37.8251 34.2926 42.6956 22.6034 38.49 12.3897C34.2844 2.17593 22.5952 -2.6946 12.3815 1.51102C2.16774 5.71665 -2.70279 17.4058 1.50283 27.6196C5.70845 37.8333 17.3976 42.7038 27.6114 38.4982Z" fill="#0077B5"/>
<path d="M9.93371 15.2981H14.2496V29.1618H9.93371V15.2981ZM12.0916 8.40234C13.478 8.40234 14.5871 9.5235 14.5871 10.8978C14.5871 12.2721 13.466 13.3933 12.0916 13.3933C10.7173 13.3933 9.58411 12.2721 9.58411 10.8978C9.58411 9.5235 10.7053 8.40234 12.0916 8.40234Z" fill="white"/>
<path d="M16.962 15.2979H21.0971V17.1906H21.1573C21.736 16.0935 23.1344 14.9482 25.2441 14.9482C29.6082 14.9482 30.4159 17.8174 30.4159 21.5546V29.1616H26.1121V22.4226C26.1121 20.8192 26.076 18.7457 23.8698 18.7457C21.6637 18.7457 21.2779 20.4938 21.2779 22.3021V29.1616H16.9741V15.2979H16.962Z" fill="white"/>
</g>
<defs>
<clipPath id="clip0_392_242">
<rect width="40" height="40" fill="white"/>
</clipPath>
</defs>
</svg>
