<svg width="261" height="56" viewBox="0 0 261 56" fill="none" xmlns="http://www.w3.org/2000/svg">
<g clip-path="url(#clip0_320_556)">
<path d="M62.3868 11.0165V27.7642C62.3868 29.5992 62.8632 31.0013 63.8158 31.9705C64.7685 32.9397 66.1074 33.4243 67.8325 33.4243C69.5576 33.4243 70.9351 32.9397 71.8878 31.9705C72.8404 31.0013 73.3168 29.5992 73.3168 27.7642V11.0165H78.7624V27.7254C78.7624 30.0257 78.2668 31.9705 77.2755 33.56C76.2842 35.1495 74.9582 36.3448 73.2974 37.146C71.6367 37.9472 69.7893 38.3478 67.7552 38.3478C65.7212 38.3478 63.9253 37.9472 62.2903 37.146C60.6553 36.3448 59.3615 35.1495 58.4088 33.56C57.4561 31.9705 56.9798 30.0257 56.9798 27.7254V11.0165H62.3868Z" fill="#FF4C46"/>
<path d="M102.013 18.7119C103.583 20.3272 104.369 22.5822 104.369 25.4769V38.0764H98.9615V26.2135C98.9615 24.5077 98.5367 23.1961 97.687 22.2786C96.8373 21.3611 95.6787 20.9023 94.2111 20.9023C92.7434 20.9023 91.5397 21.3611 90.6772 22.2786C89.8146 23.1961 89.3833 24.5077 89.3833 26.2135V38.0764H83.9763V16.5991H89.3833V19.2741C90.1043 18.3436 91.0248 17.6135 92.1448 17.0837C93.2648 16.5539 94.4943 16.2889 95.8332 16.2889C98.3822 16.2889 100.442 17.0966 102.013 18.7119Z" fill="#FF4C46"/>
<path d="M109.872 13.1294C109.241 12.522 108.926 11.766 108.926 10.8614C108.926 9.95687 109.241 9.2009 109.872 8.59354C110.503 7.98618 111.295 7.6825 112.247 7.6825C113.2 7.6825 113.992 7.98618 114.623 8.59354C115.253 9.2009 115.569 9.95687 115.569 10.8614C115.569 11.766 115.253 12.522 114.623 13.1294C113.992 13.7367 113.2 14.0404 112.247 14.0404C111.295 14.0404 110.503 13.7367 109.872 13.1294ZM114.912 16.5991V38.0764H109.505V16.5991H114.912Z" fill="#FF4C46"/>
<path d="M130.052 21.0574H126.306V38.0764H120.821V21.0574H118.388V16.5991H120.821V15.5136C120.821 12.8774 121.568 10.939 123.061 9.69841C124.555 8.45784 126.808 7.87633 129.82 7.95386V12.5285C128.507 12.5026 127.593 12.7223 127.078 13.1875C126.563 13.6527 126.306 14.4927 126.306 15.7074V16.5991H130.052V21.0574Z" fill="#FF4C46"/>
<path d="M154.036 16.5991L140.789 48.2335H135.034L139.669 37.5336L131.095 16.5991H137.158L142.681 31.6022L148.281 16.5991H154.036Z" fill="#FF4C46"/>
<path d="M165.217 17.2388C166.44 16.5797 167.837 16.2502 169.407 16.2502C171.235 16.2502 172.89 16.7025 174.37 17.6071C175.851 18.5116 177.022 19.7974 177.885 21.4644C178.747 23.1315 179.179 25.0634 179.179 27.2602C179.179 29.4571 178.747 31.4019 177.885 33.0948C177.022 34.7876 175.851 36.0993 174.37 37.0297C172.89 37.9601 171.235 38.4253 169.407 38.4253C167.837 38.4253 166.453 38.1023 165.256 37.4561C164.058 36.81 163.086 35.9959 162.34 35.0138V48.3111H156.933V16.5991H162.34V19.7005C163.035 18.7184 163.994 17.8978 165.217 17.2388ZM172.864 23.9068C172.336 22.9635 171.641 22.2463 170.778 21.7552C169.916 21.2641 168.983 21.0186 167.978 21.0186C166.974 21.0186 166.08 21.2706 165.217 21.7746C164.354 22.2786 163.659 23.0087 163.131 23.965C162.604 24.9212 162.34 26.0455 162.34 27.3378C162.34 28.63 162.604 29.7543 163.131 30.7105C163.659 31.6668 164.354 32.3969 165.217 32.9009C166.08 33.4049 167 33.6569 167.978 33.6569C168.957 33.6569 169.916 33.3984 170.778 32.8815C171.641 32.3646 172.336 31.6281 172.864 30.6718C173.392 29.7155 173.656 28.5783 173.656 27.2602C173.656 25.9421 173.392 24.8502 172.864 23.9068Z" fill="#FF4C46"/>
<path d="M187.058 37.0491C185.41 36.1316 184.116 34.8329 183.176 33.1529C182.236 31.473 181.766 29.5346 181.766 27.3378C181.766 25.1409 182.249 23.2025 183.215 21.5226C184.18 19.8427 185.5 18.5439 187.173 17.6264C188.847 16.7089 190.714 16.2502 192.774 16.2502C194.833 16.2502 196.7 16.7089 198.374 17.6264C200.047 18.5439 201.367 19.8427 202.332 21.5226C203.298 23.2025 203.781 25.1409 203.781 27.3378C203.781 29.5346 203.285 31.473 202.294 33.1529C201.302 34.8329 199.964 36.1316 198.277 37.0491C196.591 37.9666 194.705 38.4253 192.619 38.4253C190.533 38.4253 188.705 37.9666 187.058 37.0491ZM195.38 32.9785C196.243 32.5003 196.932 31.7831 197.447 30.8269C197.962 29.8706 198.219 28.7076 198.219 27.3378C198.219 25.296 197.685 23.7259 196.616 22.6275C195.548 21.5291 194.241 20.9798 192.696 20.9798C191.151 20.9798 189.858 21.5291 188.815 22.6275C187.772 23.7259 187.251 25.296 187.251 27.3378C187.251 29.3795 187.759 30.9496 188.776 32.048C189.793 33.1465 191.074 33.6957 192.619 33.6957C193.597 33.6957 194.518 33.4566 195.38 32.9785Z" fill="#FF4C46"/>
<path d="M211.235 37.4755C209.844 36.8423 208.744 35.983 207.932 34.8975C207.121 33.812 206.677 32.6102 206.6 31.2921H212.046C212.149 32.1191 212.554 32.804 213.262 33.3468C213.97 33.8895 214.852 34.1609 215.908 34.1609C216.964 34.1609 217.742 33.9541 218.322 33.5406C218.901 33.1271 219.191 32.5972 219.191 31.9511C219.191 31.2533 218.837 30.7299 218.129 30.381C217.421 30.0321 216.294 29.6509 214.749 29.2374C213.153 28.8497 211.846 28.4491 210.829 28.0356C209.812 27.6221 208.937 26.9888 208.203 26.136C207.469 25.2831 207.102 24.133 207.102 22.6856C207.102 21.4968 207.443 20.4113 208.126 19.4291C208.808 18.447 209.786 17.6717 211.061 17.1031C212.335 16.5345 213.835 16.2502 215.56 16.2502C218.109 16.2502 220.143 16.8899 221.662 18.1692C223.182 19.4485 224.018 21.1737 224.173 23.3447H218.998C218.92 22.4918 218.566 21.8134 217.936 21.3094C217.305 20.8054 216.461 20.5534 215.406 20.5534C214.427 20.5534 213.674 20.7343 213.146 21.0962C212.619 21.458 212.355 21.962 212.355 22.6081C212.355 23.3318 212.715 23.881 213.436 24.2557C214.157 24.6305 215.277 25.0117 216.796 25.3994C218.341 25.787 219.616 26.1876 220.62 26.6012C221.624 27.0147 222.493 27.6544 223.227 28.5202C223.96 29.386 224.34 30.5296 224.366 31.9511C224.366 33.1917 224.025 34.303 223.343 35.2851C222.66 36.2673 221.682 37.0362 220.407 37.5918C219.133 38.1475 217.646 38.4253 215.946 38.4253C214.247 38.4253 212.625 38.1087 211.235 37.4755Z" fill="#FF4C46"/>
<path d="M235.103 21.0574V31.4471C235.103 32.1708 235.277 32.6942 235.624 33.0172C235.972 33.3403 236.558 33.5018 237.382 33.5018H239.892V38.0764H236.493C231.936 38.0764 229.657 35.8537 229.657 31.4084V21.0574H227.108V16.5991H229.657V11.2879H235.103V16.5991H239.892V21.0574H235.103Z" fill="#FF4C46"/>
<path d="M247.269 37.4755C245.878 36.8423 244.778 35.983 243.966 34.8975C243.155 33.812 242.711 32.6102 242.634 31.2921H248.08C248.183 32.1191 248.588 32.804 249.296 33.3468C250.004 33.8895 250.886 34.1609 251.942 34.1609C252.998 34.1609 253.776 33.9541 254.356 33.5406C254.935 33.1271 255.225 32.5972 255.225 31.9511C255.225 31.2533 254.871 30.7299 254.163 30.381C253.455 30.0321 252.328 29.6509 250.783 29.2374C249.187 28.8497 247.88 28.4491 246.863 28.0356C245.846 27.6221 244.971 26.9888 244.237 26.136C243.503 25.2831 243.136 24.133 243.136 22.6856C243.136 21.4968 243.477 20.4113 244.16 19.4291C244.842 18.447 245.82 17.6717 247.095 17.1031C248.369 16.5345 249.869 16.2502 251.594 16.2502C254.143 16.2502 256.177 16.8899 257.696 18.1692C259.216 19.4485 260.052 21.1737 260.207 23.3447H255.032C254.954 22.4918 254.6 21.8134 253.969 21.3094C253.339 20.8054 252.495 20.5534 251.44 20.5534C250.461 20.5534 249.708 20.7343 249.18 21.0962C248.653 21.458 248.389 21.962 248.389 22.6081C248.389 23.3318 248.749 23.881 249.47 24.2557C250.191 24.6305 251.311 25.0117 252.83 25.3994C254.375 25.787 255.65 26.1876 256.654 26.6012C257.658 27.0147 258.527 27.6544 259.261 28.5202C259.994 29.386 260.374 30.5296 260.4 31.9511C260.4 33.1917 260.059 34.303 259.377 35.2851C258.694 36.2673 257.716 37.0362 256.441 37.5918C255.167 38.1475 253.68 38.4253 251.98 38.4253C250.281 38.4253 248.659 38.1087 247.269 37.4755Z" fill="#FF4C46"/>
<path d="M27.8913 0V14.0016H13.9488L0 27.9968V14.0016L13.9488 0H27.8913Z" fill="#FF4C46"/>
<path d="M13.9488 27.9968V41.9984L0 56V27.9968H13.9488Z" fill="#FF4C46"/>
<path d="M41.8401 14.0016V27.9967L27.8913 41.9984H13.9489L27.8913 27.9967V14.0016H41.8401Z" fill="#FF4C46"/>
</g>
<defs>
<clipPath id="clip0_320_556">
<rect width="260.4" height="56" fill="white"/>
</clipPath>
</defs>
</svg>
