<svg width="41" height="40" viewBox="0 0 41 40" fill="none" xmlns="http://www.w3.org/2000/svg">
<g clip-path="url(#clip0_392_1194)">
<path d="M20.6667 0C9.62389 0 0.666687 8.9572 0.666687 20C0.666687 31.0428 9.62389 40 20.6667 40C31.7095 40 40.6667 31.0428 40.6667 20C40.6667 8.9572 31.7095 0 20.6667 0ZM28.2857 22.8813C25.7179 26.0639 21.5588 26.2809 19.642 24.3159C19.4973 24.1712 19.3768 23.9904 19.2321 23.8095C19.208 23.8819 19.1959 23.9421 19.1718 24.0024C18.2556 27.619 18.1471 28.4147 17.2068 30.0904C16.7607 30.8861 16.2423 31.6456 15.6878 32.3689C15.6275 32.4533 15.5672 32.5618 15.4346 32.5256C15.29 32.5015 15.29 32.3689 15.2658 32.2604C15.1091 31.1634 15.0247 30.0663 15.073 28.9572C15.1212 27.5105 15.302 27.0163 17.1586 19.1923C17.1827 19.0717 17.1586 18.9753 17.1103 18.8668C16.6643 17.6612 16.5799 16.4436 16.9657 15.214C17.8095 12.5497 20.8355 12.3448 21.3659 14.5389C21.6914 15.9011 20.8355 17.6854 20.1724 20.3134C19.6299 22.4834 22.1857 24.0265 24.3677 22.4473C26.381 20.9885 27.1646 17.4804 27.0199 14.997C26.7306 10.0422 21.2936 8.96926 17.8457 10.5726C13.8915 12.4051 12.9994 17.2996 14.7836 19.5419C15.0127 19.8312 15.1815 20 15.1091 20.2893C14.9886 20.7354 14.8921 21.1935 14.7716 21.6395C14.6751 21.9771 14.3979 22.0976 14.0724 21.953C13.4093 21.6878 12.8668 21.2658 12.4208 20.7113C10.9018 18.8306 10.4678 15.1296 12.481 11.9831C14.6992 8.4991 18.8343 7.10066 22.5956 7.5226C27.0922 8.02893 29.9373 11.1151 30.4798 14.5992C30.7209 16.1905 30.5522 20.1085 28.3219 22.8813H28.2857Z" fill="#E60023"/>
</g>
<defs>
<clipPath id="clip0_392_1194">
<rect width="40" height="40" fill="white" transform="translate(0.666687)"/>
</clipPath>
</defs>
</svg>
