<svg width="40" height="40" viewBox="0 0 40 40" fill="none" xmlns="http://www.w3.org/2000/svg">
<g clip-path="url(#clip0_392_833)">
<path d="M20 0C8.948 0 0 8.9601 0 20C0 31.052 8.9601 40 20 40C31.052 40 40 31.0399 40 20C40 8.948 31.052 0 20 0Z" fill="black"/>
<path d="M25.1995 19.033C25.3083 19.0814 25.4051 19.1298 25.5018 19.166C26.9045 19.8432 27.9202 20.8468 28.4643 22.1044C29.214 23.8577 29.2866 26.6993 27.0133 28.9605C25.2842 30.6896 23.1681 31.4756 20.1814 31.4998H20.1693C16.8077 31.4756 14.2201 30.351 12.4788 28.1382C10.9311 26.1793 10.133 23.4345 10.1088 20.0125V19.9883C10.133 16.5663 10.9311 13.8214 12.4788 11.8625C14.2201 9.64971 16.8077 8.52516 20.1693 8.50098H20.1814C23.555 8.52516 26.1669 9.64971 27.9565 11.8504C28.8392 12.9387 29.4921 14.2446 29.9033 15.7682L27.9686 16.2882C27.63 15.0548 27.11 14.0028 26.4208 13.1564C25.0181 11.4393 22.9262 10.5566 20.1693 10.5445C17.4365 10.5687 15.3688 11.4393 14.0266 13.1564C12.769 14.7525 12.1161 17.062 12.0919 20.0125C12.1161 22.9629 12.769 25.2724 14.0266 26.8807C15.3688 28.5856 17.4365 29.4683 20.1693 29.4925C22.636 29.4683 24.2563 28.8879 25.6227 27.5336C27.1705 25.9859 27.1463 24.0874 26.6505 22.9387C26.3603 22.2616 25.8283 21.6932 25.127 21.27C24.9456 22.5639 24.5586 23.5796 23.942 24.3776C23.1197 25.4175 21.9589 25.9859 20.4595 26.0705C19.3229 26.131 18.2467 25.8649 17.4002 25.3087C16.4087 24.6437 15.8162 23.64 15.7557 22.4671C15.6348 20.1576 17.4607 18.4889 20.3144 18.3317C21.3301 18.2712 22.2733 18.3196 23.156 18.4647C23.0351 17.7513 22.8053 17.1951 22.4547 16.7839C21.971 16.2277 21.2334 15.9375 20.2418 15.9254H20.2056C19.4075 15.9254 18.3313 16.1431 17.6542 17.183L16.0097 16.0463C16.9287 14.6558 18.416 13.8819 20.2177 13.8819H20.2539C23.2527 13.9061 25.0423 15.7803 25.2237 19.0451L25.1995 19.033ZM17.7267 22.3341C17.7872 23.5312 19.0931 24.0995 20.3386 24.027C21.5599 23.9544 22.9504 23.4828 23.1923 20.5203C22.5635 20.3873 21.8621 20.3148 21.1125 20.3148C20.8827 20.3148 20.653 20.3148 20.4232 20.3389C18.3676 20.4599 17.6784 21.4514 17.7267 22.3462V22.3341Z" fill="white"/>
</g>
<defs>
<clipPath id="clip0_392_833">
<rect width="40" height="40" fill="white"/>
</clipPath>
</defs>
</svg>
