<svg width="88" height="88" viewBox="0 0 88 88" fill="none" xmlns="http://www.w3.org/2000/svg">
<rect width="88" height="88" rx="44" fill="#00D37F" fill-opacity="0.16"/>
<rect x="12" y="12" width="64" height="64" rx="32" fill="#00D37F" fill-opacity="0.16"/>
<path d="M41.0121 48.5184L36.1216 43.6274C35.83 43.3361 35.4635 43.187 35.0221 43.18C34.5811 43.1733 34.2079 43.3225 33.9026 43.6274C33.5977 43.9326 33.4453 44.3025 33.4453 44.7368C33.4453 45.1712 33.5977 45.5411 33.9026 45.8463L39.68 51.6237C40.0607 52.004 40.5047 52.1942 41.0121 52.1942C41.5195 52.1942 41.9635 52.004 42.3442 51.6237L54.0568 39.9111C54.3481 39.6195 54.4972 39.253 54.5042 38.8116C54.5109 38.3705 54.3618 37.9974 54.0568 37.6921C53.7516 37.3872 53.3818 37.2347 52.9474 37.2347C52.513 37.2347 52.1432 37.3872 51.8379 37.6921L41.0121 48.5184ZM44.0037 64C41.2374 64 38.6372 63.4751 36.2032 62.4253C33.7691 61.3754 31.6519 59.9507 29.8516 58.1511C28.0512 56.3514 26.6258 54.2351 25.5753 51.8021C24.5251 49.3691 24 46.7696 24 44.0037C24 41.2374 24.5249 38.6372 25.5747 36.2032C26.6246 33.7691 28.0493 31.6519 29.8489 29.8516C31.6486 28.0512 33.7649 26.6258 36.1979 25.5753C38.6309 24.5251 41.2304 24 43.9963 24C46.7626 24 49.3628 24.5249 51.7968 25.5747C54.2309 26.6246 56.3481 28.0493 58.1484 29.8489C59.9488 31.6486 61.3742 33.7649 62.4247 36.1979C63.4749 38.6309 64 41.2304 64 43.9963C64 46.7626 63.4751 49.3628 62.4253 51.7968C61.3754 54.2309 59.9507 56.3481 58.1511 58.1484C56.3514 59.9488 54.2351 61.3742 51.8021 62.4247C49.3691 63.4749 46.7696 64 44.0037 64Z" fill="#00D37F"/>
</svg>
