<svg width="41" height="40" viewBox="0 0 41 40" fill="none" xmlns="http://www.w3.org/2000/svg">
<g clip-path="url(#clip0_392_1334)">
<path d="M20.6667 40C31.7124 40 40.6667 31.0457 40.6667 20C40.6667 8.95431 31.7124 0 20.6667 0C9.62099 0 0.666687 8.95431 0.666687 20C0.666687 31.0457 9.62099 40 20.6667 40Z" fill="black"/>
<path opacity="0.8" fill-rule="evenodd" clip-rule="evenodd" d="M27.2851 16.0339C29.0693 17.3118 31.2634 18.0593 33.6263 18.0593V13.5144C33.1802 13.5144 32.7342 13.4661 32.3002 13.3697V16.9502C29.9373 16.9502 27.7553 16.2027 25.959 14.9248V24.1955C25.959 28.8368 22.1977 32.5981 17.5564 32.5981C15.8204 32.5981 14.217 32.0798 12.8788 31.1756C14.4099 32.7308 16.5316 33.7072 18.8825 33.7072C23.5238 33.7072 27.2851 29.9459 27.2851 25.3046V16.0339ZM28.9247 11.4529C28.0084 10.4523 27.4177 9.17439 27.2851 7.73979V7.16113H26.0193C26.3327 8.96945 27.4177 10.5125 28.9247 11.4529ZM15.8083 27.6192C15.302 26.9562 15.0247 26.1364 15.0247 25.2925C15.0247 23.1708 16.7486 21.4468 18.8704 21.4468C19.2682 21.4468 19.654 21.5071 20.0398 21.6277V16.9863C19.5937 16.9261 19.1597 16.9019 18.7137 16.914V20.5306C18.34 20.4101 17.9421 20.3498 17.5443 20.3498C15.4225 20.3498 13.6986 22.0737 13.6986 24.1955C13.6986 25.6904 14.5546 26.9924 15.8083 27.6313V27.6192Z" fill="#FF1753"/>
<path fill-rule="evenodd" clip-rule="evenodd" d="M25.959 14.9242C27.7432 16.2021 29.9373 16.9495 32.3002 16.9495V13.3691C30.9862 13.0918 29.8168 12.4046 28.9367 11.4402C27.4298 10.4999 26.3569 8.95676 26.0314 7.14844H22.7161V25.304C22.7161 27.4257 20.9922 29.1376 18.8704 29.1376C17.6167 29.1376 16.5076 28.5469 15.8083 27.6186C14.5546 26.9917 13.6986 25.6897 13.6986 24.1828C13.6986 22.061 15.4226 20.3371 17.5443 20.3371C17.9542 20.3371 18.34 20.3974 18.7137 20.5179V16.9013C14.1567 16.9977 10.4919 20.7229 10.4919 25.304C10.4919 27.5945 11.4081 29.668 12.8909 31.175C14.2291 32.0671 15.8324 32.5975 17.5684 32.5975C22.2098 32.5975 25.9711 28.8362 25.9711 24.1949V14.9242H25.959Z" fill="white"/>
<path fill-rule="evenodd" clip-rule="evenodd" d="M31.8132 14.3177V13.3532C30.6197 13.3532 29.4623 13.0277 28.4497 12.3888C29.3418 13.3653 30.5232 14.0404 31.8132 14.3177ZM25.5443 8.09705C25.5082 7.92827 25.4961 7.74744 25.472 7.57866V7H20.903V25.1555C20.903 27.2652 19.179 28.9892 17.0573 28.9892C16.4304 28.9892 15.8517 28.8445 15.3334 28.5793C16.0326 29.4955 17.1417 30.0983 18.3954 30.0983C20.5172 30.0983 22.2291 28.3864 22.2411 26.2646V8.09705H25.5564H25.5443ZM18.2267 17.8499V16.8252C17.8409 16.777 17.4551 16.7529 17.0693 16.7529C12.428 16.7529 8.66669 20.5142 8.66669 25.1555C8.66669 28.0609 10.1495 30.6287 12.3918 32.1356C10.909 30.6166 9.99279 28.5431 9.99279 26.2646C9.99279 21.6835 13.6576 17.9584 18.2146 17.862L18.2267 17.8499Z" fill="#00C9D0"/>
</g>
<defs>
<clipPath id="clip0_392_1334">
<rect width="40" height="40" fill="white" transform="translate(0.666687)"/>
</clipPath>
</defs>
</svg>
