<svg width="41" height="40" viewBox="0 0 41 40" fill="none" xmlns="http://www.w3.org/2000/svg">
<g clip-path="url(#clip0_392_2517)">
<path d="M20.3334 0C9.29058 0 0.333374 8.9572 0.333374 20C0.333374 31.0428 9.29058 40 20.3334 40C31.3762 40 40.3334 31.0428 40.3334 20C40.3334 8.9572 31.3762 0 20.3334 0Z" fill="black"/>
<path d="M21.871 18.1139L29.7071 9H27.8505L21.0392 16.9084L15.6022 9H9.33337L17.5552 20.9711L9.33337 30.531H11.1899L18.375 22.1766L24.1134 30.531H30.3822L21.859 18.126L21.871 18.1139ZM19.3273 21.0675L18.4955 19.874L11.865 10.3864H14.7222L20.0748 18.0416L20.9066 19.2351L27.8626 29.1808H25.0055L19.3273 21.0675Z" fill="white"/>
</g>
<defs>
<clipPath id="clip0_392_2517">
<rect width="40" height="40" fill="white" transform="translate(0.333374)"/>
</clipPath>
</defs>
</svg>
