<svg width="41" height="40" viewBox="0 0 41 40" fill="none" xmlns="http://www.w3.org/2000/svg">
<g clip-path="url(#clip0_392_803)">
<path d="M25.1435 20.5063L18.5612 23.7613C18.3081 23.906 17.428 23.7131 17.428 23.4237V16.745C17.428 16.4436 18.3081 16.2628 18.5733 16.4075L24.8662 19.8312C25.1314 19.9759 25.4087 20.3617 25.1435 20.5063ZM40.3213 20C40.3213 31.0428 31.3641 40 20.3213 40C9.27852 40 0.333374 31.0428 0.333374 20C0.333374 8.9572 9.29058 0 20.3334 0C31.3762 0 40.3334 8.9572 40.3334 20H40.3213ZM33.7752 16.5883C33.7752 13.4177 31.2074 10.8499 28.0368 10.8499H13.3653C10.1947 10.8499 7.62692 13.4177 7.62692 16.5883V23.4117C7.62692 26.5823 10.1947 29.1501 13.3653 29.1501H28.0368C31.2074 29.1501 33.7752 26.5823 33.7752 23.4117V16.5883Z" fill="#FF0000"/>
</g>
<defs>
<clipPath id="clip0_392_803">
<rect width="40" height="40" fill="white" transform="translate(0.333374)"/>
</clipPath>
</defs>
</svg>
